<svg width="814" height="814" viewBox="0 0 814 814" fill="none" xmlns="http://www.w3.org/2000/svg">
<g clip-path="url(#clip0_2070_72)">
<path d="M407 814C631.78 814 814 631.78 814 407C814 182.22 631.78 0 407 0C182.22 0 0 182.22 0 407C0 631.78 182.22 814 407 814Z" fill="#166CFB"/>
<path d="M406.7 125.915C420.047 125.901 430.856 115.07 430.84 101.724C430.828 88.3779 419.996 77.57 406.649 77.5842C331.715 77.6641 259.048 103.29 200.639 150.232C142.23 197.174 101.572 262.627 85.3735 335.79C69.1751 408.953 78.4049 485.452 111.54 552.663C144.674 619.871 199.734 673.778 267.631 705.481C335.529 737.184 412.205 744.789 485.01 727.047C557.812 709.302 622.387 667.264 668.083 607.875C713.777 548.483 737.858 475.289 736.35 400.371C735.052 335.965 714.913 273.591 678.758 220.821C670.573 235.533 656.89 246.609 641.185 251.544C670.588 295.838 686.95 347.766 688.029 401.343C689.313 465.27 668.768 527.726 629.777 578.403C590.786 629.079 535.684 664.949 473.563 680.089C411.442 695.23 346.014 688.741 288.08 661.688C230.143 634.635 183.162 588.639 154.889 531.29C126.616 473.941 118.74 408.666 132.562 346.237C146.384 283.809 181.077 227.96 230.916 187.904C280.754 147.849 342.76 125.984 406.7 125.915Z" fill="white"/>
<path d="M661.375 190.163C661.375 212.033 643.073 228.938 623.041 228.938C603.011 228.938 585.062 212.033 585.062 190.163C585.062 168.292 603.011 152.625 623.041 152.625C643.073 152.625 661.375 168.292 661.375 190.163Z" fill="white"/>
<path d="M496.273 278.149C503.289 285.951 509.544 296.266 512.785 305.787C513.682 308.427 514.173 311.284 514.173 314.306C514.173 329.858 501.16 341.878 486.915 341.878C476.017 341.878 465.987 334.844 461.877 324.572C460.732 322.537 456.881 315.809 453.675 311.788C443.887 299.496 430.939 292.04 414.565 292.04C393.849 292.04 378.012 305.22 378.012 323.415C378.012 344.785 392.389 358.72 432.56 381.125C484.699 410.531 511.538 441.308 511.538 481.397C511.538 535.386 469.014 569.803 407.763 569.803C369.546 569.803 340.804 555.235 320.045 530.883C311.258 520.579 306.408 512.105 301.826 499.705C300.534 496.517 299.809 493.015 299.809 489.313C299.809 473.761 312.574 462.622 326.819 462.622C336.976 462.622 346.774 468.434 351.338 477.561C351.338 477.561 357.679 489.601 363.062 496.583C374.964 512.024 389.616 521.393 407.145 521.393C431.25 521.393 447.718 506.557 447.718 485.131C447.718 462.149 433.386 448.873 387.622 423.125C340.191 396.263 314.191 364.481 314.191 327.149C314.191 278.915 356.652 244.203 413.019 244.203C449.99 244.203 477.187 256.919 496.273 278.149Z" fill="white"/>
</g>
<defs>
<clipPath id="clip0_2070_72">
<rect width="814" height="814" fill="white"/>
</clipPath>
</defs>
</svg>
