<svg width="1840" height="294" viewBox="0 0 1840 294" fill="none" xmlns="http://www.w3.org/2000/svg">
<path d="M185.468 60.8318C186.638 63.231 187.584 65.4517 188.504 67.9297L143.382 84.1259C142.994 83.2019 142.547 82.2045 142.036 81.1493C140.127 77.238 137.734 73.3267 134.793 69.6674C126.29 59.0729 115.048 52.6469 100.828 52.6469C82.8373 52.6469 69.0851 64.008 69.0851 79.6845C69.0851 98.1015 81.5716 110.108 116.457 129.418C161.734 154.76 185.037 181.282 185.037 215.833C185.037 262.353 148.115 292.016 94.9195 292.016C61.7357 292.016 36.7734 279.463 18.7456 258.479C12.4173 251.113 7.41319 243.211 3.60024 235.31C2.27076 232.549 1.1806 229.992 0.324418 227.698C0.207424 227.393 0.10104 227.099 0 226.821L44.9258 210.158C45.5161 211.491 46.2074 212.956 47.0051 214.52C49.5099 219.424 52.5357 224.327 56.1041 228.916C66.4368 242.224 79.1625 250.299 94.3877 250.299C115.319 250.299 129.619 237.515 129.619 219.051C129.619 199.243 117.175 187.803 77.4289 165.611C36.2416 142.464 13.6617 115.075 13.6617 82.9027C13.6617 41.3384 50.5361 11.424 99.4876 11.424C131.592 11.424 155.209 22.3859 171.785 40.6769C177.592 47.0872 182.102 53.9595 185.468 60.8318ZM282.222 287.721H228.144V86.835H282.222V287.721ZM255.579 59.787C237.684 59.787 223.172 46.4048 223.172 29.8935C223.172 13.3823 237.684 0 255.579 0C273.479 0 287.987 13.3823 287.987 29.8935C287.987 46.4048 273.479 59.787 255.579 59.787ZM383.948 164.692V288.65H332.556V87.7694H377.976L380.534 115.783L384.486 110.255C396.424 93.5498 415.457 84.5513 438.776 84.5513C464.542 84.5513 484.335 95.655 495.05 116.177L497.231 120.346L499.507 116.219C510.712 95.9385 531.265 84.5513 556.882 84.5513C596.405 84.5513 620.154 109.809 620.154 153.505V288.65H568.762V165.931C568.762 139.771 557.791 126.514 536.748 126.514C515.078 126.514 502.054 140.395 502.054 165.931V288.65H450.656V165.931C450.656 139.771 439.691 126.514 418.648 126.514C396.828 126.514 383.948 139.65 383.948 164.692ZM711.921 286.377H665.681L665.67 13.7077H719.754V106.859L724.152 101.992C735.596 89.3235 752.666 82.5773 773.773 82.5773C822.336 82.5773 848.591 108.428 848.591 156.224V216.688C848.591 264.248 820.8 291.328 772.433 291.328C748.189 291.328 729.698 283.694 718.089 268.674L714.207 263.644L711.921 286.377ZM719.754 164.152V210.194C719.754 233.982 734.277 248.871 757.133 248.871C779.984 248.871 794.513 233.982 794.513 210.194V164.152C794.513 140.364 779.984 125.48 757.133 125.48C734.277 125.48 719.754 140.364 719.754 164.152ZM943.489 287.721H889.406V86.835H943.489V287.721ZM919.33 59.787C901.435 59.787 886.923 46.4048 886.923 29.8935C886.923 13.3823 901.435 0 919.33 0C937.225 0 951.737 13.3823 951.737 29.8935C951.737 46.4048 937.225 59.787 919.33 59.787ZM1044.73 118.477C1056.84 97.2194 1078.23 85.6958 1107.15 84.6143V134.93H1086.82C1059.4 134.93 1042.73 151.573 1042.73 181.776V288.403H991.335V87.5176H1037.54L1040.71 125.528L1044.73 118.477ZM1314.64 67.9297L1269.52 84.1259C1269.13 83.2019 1268.69 82.2045 1268.17 81.1493C1266.27 77.238 1263.87 73.3267 1260.93 69.6674C1252.43 59.0729 1241.19 52.6469 1226.97 52.6469C1208.98 52.6469 1195.22 64.008 1195.22 79.6845C1195.22 98.1015 1207.7 110.108 1242.59 129.418C1287.87 154.76 1311.18 181.282 1311.18 215.833C1311.18 262.353 1274.25 292.016 1221.06 292.016C1187.87 292.016 1162.91 279.463 1144.88 258.479C1138.56 251.113 1133.55 243.211 1129.74 235.31C1128.41 232.549 1127.32 229.992 1126.46 227.698C1126.35 227.393 1126.24 227.099 1126.14 226.821L1171.06 210.158C1171.65 211.491 1172.35 212.956 1173.14 214.52C1175.65 219.424 1178.67 224.327 1182.24 228.916C1192.58 242.224 1205.3 250.299 1220.52 250.299C1241.46 250.299 1255.76 237.515 1255.76 219.051C1255.76 199.243 1243.31 187.803 1203.57 165.611C1162.38 142.464 1139.8 115.075 1139.8 82.9027C1139.8 41.3384 1176.67 11.424 1225.62 11.424C1257.73 11.424 1281.35 22.3859 1297.92 40.6769C1303.73 47.0872 1308.24 53.9595 1311.6 60.8318C1312.78 63.231 1313.72 65.4517 1314.64 67.9297ZM1339.37 213.087V165.91C1339.37 116.319 1375.78 84.5513 1430.34 84.5513C1484.49 84.5513 1519.6 115.143 1519.6 164.325V211.502C1519.6 260.957 1482.91 292.861 1428.62 292.861C1374.31 292.861 1339.37 262.521 1339.37 213.087ZM1390.76 165.611V211.796C1390.76 235.589 1405.81 250.399 1429.48 250.399C1453.15 250.399 1468.2 235.589 1468.2 211.796V165.611C1468.2 141.818 1453.15 127.013 1429.48 127.013C1405.81 127.013 1390.76 141.818 1390.76 165.611ZM1624.33 96.8257H1669.96V131.859H1624.33V287.805H1572.94V131.859H1540.73V96.8257H1572.94V70.2817C1572.94 32.0512 1596.25 11.424 1637.56 11.424C1651.29 11.424 1662.87 12.4792 1672.34 14.2275C1675.62 14.8365 1678.41 15.4822 1680.7 16.128C1680.99 16.2067 1681.26 16.2855 1681.5 16.359L1675.75 52.1693C1674.41 51.9173 1672.91 51.6705 1671.28 51.4395C1665.75 50.6468 1659.81 50.1743 1653.66 50.1743C1633.87 50.1743 1624.33 58.653 1624.33 77.805V96.8257ZM1734.92 41.1337H1786.32V98.0647H1840V133.098H1786.32V226.973C1786.32 244.167 1794.88 251.538 1812.96 251.538C1818.55 251.538 1824.36 251.065 1830.08 250.273C1831.83 250.031 1833.46 249.774 1834.95 249.517L1839.79 289.685C1839.52 289.748 1839.23 289.816 1838.91 289.894C1836.51 290.456 1833.59 291.023 1830.16 291.553C1820.29 293.081 1808.31 294 1794.17 294C1756.22 294 1734.92 274.607 1734.92 238.854V133.098H1697.34V98.0647H1734.92V41.1337Z" fill="#166CFB"/>
</svg>
